PathFileType	4	(X/Y/Z)	6_1_29_p1_0-267.trc
DataRate	CameraRate	NumFrames	NumMarkers	Units	OrigDataRate	OrigDataStartFrame	OrigNumFrames
60.0	60.0	7	27	m	60.0	234	268
Frame#	Time	RHip			RKnee			RAnkle			RBigToe			RSmallToe			RHeel			LHip			LKnee			LAnkle			LBigToe			LSmallToe			LHeel			Neck			Head			Nose			RShoulder			RElbow			RWrist			RThumb			RIndex			RPinky			LShoulder			LElbow			LWrist			LThumb			LIndex			LPinky			
		X1	Y1	Z1	X2	Y2	Z2	X3	Y3	Z3	X4	Y4	Z4	X5	Y5	Z5	X6	Y6	Z6	X7	Y7	Z7	X8	Y8	Z8	X9	Y9	Z9	X10	Y10	Z10	X11	Y11	Z11	X12	Y12	Z12	X13	Y13	Z13	X14	Y14	Z14	X15	Y15	Z15	X16	Y16	Z16	X17	Y17	Z17	X18	Y18	Z18	X19	Y19	Z19	X20	Y20	Z20	X21	Y21	Z21	X22	Y22	Z22	X23	Y23	Z23	X24	Y24	Z24	X25	Y25	Z25	X26	Y26	Z26	X27	Y27	Z27	
234	3.9	0.25833308447903874	0.40705471214808103	0.7393496432054475	0.293808131404025	0.44814418046418464	1.1434052484310588	0.3063802798882386	0.5224590793219887	1.4902328259570454	0.27394964759100027	0.3534899841409184	1.507140184898656	0.3320138396312374	0.42011007435428865	1.5359940169105015	0.2801006234178124	0.5918248607913392	1.5750404129576463	0.05684407595883681	0.4449510342176325	0.7762559483466444	0.058781966356856896	0.4216157289516176	1.1265391147327741	0.0855620376064049	0.5031908698529785	1.5089591088529128	0.09262756311718631	0.3800663087741036	1.5479687953221848	0.04667925626172636	0.37358442891829147	1.5146342248312274	0.11285539505218439	0.586425429859725	1.578215027357698	0.11106096586762272	0.44412107049353616	0.21549629757654262	0.11360118747997239	0.40278192227144577	-0.034007224653774024	0.12613503500592657	0.3141465396935879	0.08521744007862678	0.26187200986785675	0.3858424200791714	0.2537838059685006	0.2967168015158389	0.35093171186428906	0.500214601899319	0.19087326177709235	0.29326847364363356	0.6816914976225231	0.11733627890511979	0.27375200432891283	0.7339334656639955	0.12036965472595211	0.29884188894160374	0.7809775957283116	0.15011524213034397	0.26438599987178557	0.7780618566615407	-0.013019190120434398	0.44898185131482127	0.28785604695558914	-0.023859297827175226	0.35710260042035175	0.4960529013667446	0.0719528940162183	0.2781185348309394	0.6527983161621815	0.12987232030594462	0.2376925168404709	0.7084523888635277	0.13149933542385098	0.23600266582274534	0.7281283220311819	0.13072004718207061	0.2490224464747654	0.7366895557182773
235	3.9166666666666665	0.2618459028831818	0.4197207760642047	0.7431918156753402	0.2972050249552589	0.4623601702369661	1.145757390180106	0.306415738562492	0.5224742512914015	1.4902352401562482	0.2741391646711	0.3536866958326972	1.5072409856923792	0.33194932037116887	0.4195882631741698	1.5354711696729075	0.28009251098592985	0.5918084296071693	1.5752269968043713	0.05733745916399425	0.44411043878397183	0.7795339198767068	0.058847581807072474	0.42159964935011063	1.1266965392246473	0.08633891020097241	0.4907562518780824	1.501826164713063	0.09266745917007871	0.3803349958965264	1.5482364769220605	0.046681875938422664	0.37369257036149106	1.5145636855219058	0.10948697892506008	0.571873478239094	1.5700327718016998	0.11103632332013844	0.4441399010641883	0.21554202972321737	0.1136650772292729	0.40282463881142355	-0.03396167851948171	0.12620536510180894	0.314243980212984	0.08513727630158023	0.26187538558151363	0.3859047219118747	0.2537806284571236	0.29677567057861853	0.35093353493524376	0.5001198166611093	0.19503428593806013	0.2808489725860389	0.6771529309114426	0.11695623607864135	0.2750613542169739	0.7273858343679829	0.11606287022889591	0.28743537136923086	0.7689015825792502	0.14984710695160144	0.2637806307880101	0.777603248586796	-0.016993655836918503	0.44645080395892467	0.2880101455504557	-0.023978047285167736	0.35699720618216935	0.4960976323707086	0.0719999733250482	0.2780874712769959	0.6529623341870788	0.1318849938230195	0.2479123625039306	0.7075605002491839	0.13157657349825097	0.23635580653930588	0.7281153327235379	0.13075819052860332	0.2490631271841445	0.7367648549112118
236	3.933333333333333	0.2618891273134237	0.41970034610114215	0.7431241308633393	0.29823431096599345	0.4606240259791482	1.1439243295229926	0.3063905953841821	0.5224991381480923	1.4901546992992027	0.27412610568958135	0.3535011475336977	1.5070597162388395	0.3320778447785224	0.4196458607175521	1.5355274577362874	0.2744673641730932	0.5876268522053082	1.5683127352954505	0.05745966615693004	0.444051720830882	0.7794993335477778	0.05950613122493005	0.4201130171079054	1.129917161464178	0.08552489383894812	0.503160583122318	1.5088735416600216	0.09794421592806091	0.367001832687859	1.539289899776878	0.04683840039274938	0.37374083283181325	1.5146802567494446	0.11275107571859379	0.5864420450899178	1.5783231721911999	0.11100520238231702	0.4442204996554155	0.21556874237510204	0.11364977598341672	0.4028796149958201	-0.03395231610079195	0.12628935121340515	0.3139459779700956	0.08876111938983729	0.2618391979556457	0.38607721360991254	0.25381293170067276	0.29676311021426444	0.35092412162677006	0.5000490463174702	0.19512642209612965	0.28054114205476466	0.6770564142872743	0.12223029898119997	0.26200008086778576	0.7261531977226273	0.12507482913933202	0.2861595209436115	0.7757175120176374	0.1499786217967014	0.26399777228219423	0.7777552125546677	-0.01703654989807194	0.44635335566015666	0.2879849344882463	-0.02416638994372709	0.35670359247903893	0.49586732666703953	0.07211093848209355	0.27803358466532396	0.6529003105712368	0.13279245091850655	0.24874439929401448	0.7118427173182498	0.13624912769832273	0.22493225090151642	0.7240055754440327	0.13086213817576042	0.24881038865501703	0.736763992850767
237	3.95	0.25845853860073476	0.407270831803932	0.7393788778251652	0.297683846143918	0.4609998526756911	1.148553610837462	0.30645667043278696	0.5225643398512488	1.490161225853562	0.2740849673997095	0.3535739544494871	1.5070913699035264	0.3319718652241644	0.41951645724254394	1.5354012848807033	0.2794169878627849	0.5897242935358663	1.5633314460813394	0.05732735736163249	0.4437802752827964	0.779423632232451	0.059451022088855054	0.42014028382321217	1.130010296993309	0.08547526542683631	0.5031023509817035	1.508738282276397	0.09276948974212759	0.38040371972922515	1.548188713616687	0.04678712526786473	0.3738223943757167	1.5146876196001566	0.11271321320926103	0.5863463408341036	1.57793000061677	0.11100763606432167	0.44428422155412395	0.21560492666334322	0.10692584564612233	0.40391947880188483	-0.03317740268061388	0.12617946557220763	0.3143981823623724	0.08523159919151051	0.26184890845620024	0.3861172399655046	0.2537230980447775	0.2963868273401295	0.35188641845889146	0.49671503278955637	0.19526800599684083	0.28037157704734345	0.6769175732029143	0.12179301294716856	0.2628202135509114	0.7225399737591095	0.12159388372010528	0.27334236935471173	0.7673560263746227	0.15032395244657762	0.26284266855851646	0.780642148131541	-0.01693783587927491	0.4468023811758359	0.28781642045620986	-0.027951863788385732	0.3544919682546661	0.4956441840450132	0.07217321118873066	0.27789922870901673	0.6528421207070976	0.13213852045953864	0.24736689635357947	0.7074388449013277	0.13962152102689784	0.22582379125390573	0.7238316431061811	0.13085624943046234	0.24859409926618545	0.7364341950080557
238	3.966666666666667	0.2583280676554476	0.4070523478489819	0.7391807514289688	0.2969124629200003	0.45911451307853146	1.1384427149544818	0.30646392002378786	0.522476530964386	1.4900626186995218	0.2747287334412594	0.35301461780759774	1.5024533534290858	0.331928111298802	0.4197289724936861	1.5355511177794858	0.2794167094580826	0.5896387584048128	1.563235299855913	0.05671715962895832	0.4447360026813246	0.7760991671754655	0.05888474501687227	0.42155888817978604	1.1264578275570083	0.08551481231907593	0.5030779151905787	1.5087283895425023	0.0927514974762434	0.3803052274724788	1.5480421423561643	0.046762437131519445	0.3737885769218916	1.5146670817459258	0.1127515344138895	0.5863483552502364	1.5780738501157219	0.11097326639339766	0.44437441497105185	0.21561589193486527	0.10899459880254389	0.41606022143560906	-0.032585051245605096	0.12612268239202865	0.3145588843340674	0.08516112052805823	0.2618292856289841	0.3861951757900493	0.2536617171040141	0.2963543440851637	0.3518745787681966	0.4966233969723297	0.19534851056829058	0.28038646154696467	0.6768884269452545	0.12191207899660243	0.2617446926327623	0.7289041863269068	0.1210403042817061	0.2744815506020748	0.7639412873689968	0.15035368325841605	0.26291700075151936	0.7806560376346675	-0.016975819365708075	0.4469155639320262	0.2877962481668305	-0.028060677840707884	0.3543149054888791	0.49552668962985447	0.0777508481963285	0.25660872239622756	0.6455486083139552	0.12944757257630277	0.23592127366796817	0.7040302552133226	0.13931057185554224	0.22343001187706268	0.7225685669889893	0.13087473515116246	0.24839297616312275	0.7361544497010638
239	3.9833333333333334	0.25830134172850305	0.4071257880299652	0.739263556419596	0.296959188552108	0.4590794184314657	1.1384588712068464	0.30504611484999994	0.520772903850737	1.4841933654009438	0.27407848031463167	0.35365190227284177	1.5070594329645466	0.33192485935261135	0.4198364739016414	1.535555502219091	0.27702938629031426	0.5879871756637627	1.5631351255435537	0.05423644847087209	0.4322048015071207	0.7682503926096381	0.05908988305546678	0.41847002300254854	1.1200723732410205	0.08238988192507742	0.48891732092012974	1.501083926452825	0.09798303770930432	0.3669289141455991	1.5391590129170598	0.04680114014087956	0.3736171919315568	1.5146714545739821	0.1126639737947628	0.5863035721623946	1.5778568040664978	0.1109712718196611	0.44448713840476495	0.21570520851893307	0.10904317462381001	0.41623746120943805	-0.03248022533971412	0.1261011658401191	0.31448571351407745	0.08527129419029542	0.26176459260176804	0.3864074794157087	0.25371547854625875	0.2964876702658153	0.3519931296255391	0.49286099496751745	0.19543261034579046	0.28012443040865115	0.6768679748268852	0.12193104966150393	0.2615022720870955	0.7288835384867544	0.12159158036045516	0.2732886243578675	0.7673536467907025	0.15039223148418515	0.26294018432228494	0.7808062620112038	-0.016909011764983155	0.44684029855727647	0.2877579079834386	-0.028073543882461135	0.3543443366313068	0.49563827756704126	0.07777935421161505	0.25657740193956047	0.6456032634515914	0.1298441323355185	0.2361443468618241	0.700467022464734	0.14020343236680574	0.22461314391887047	0.7269621175801881	0.13091356661312906	0.24840546794070079	0.7363911380980895
240	4.0	0.258333925011366	0.40719801889192325	0.7392216316552611	0.2979612026780008	0.4563541637851702	1.145180938744689	0.30510448171398985	0.5205280762768161	1.484095343745117	0.27411075447814887	0.3532713762702182	1.5068620827462944	0.3357652354417851	0.40468132168229864	1.5258121370820812	0.2778761313816908	0.5876114057452183	1.5571646164333668	0.052877568398787184	0.443464479751541	0.7760083237767255	0.06211176599182337	0.4317650496362847	1.1257746072933572	0.08722063639298193	0.49036279418996115	1.4963688326071651	0.09275584065851944	0.38021914909768384	1.547863840185399	0.047625949565579015	0.3732483733071797	1.5098807925060926	0.10953580720850845	0.5730714434455084	1.561005104417546	0.11095528118099662	0.44428922836069384	0.21569664240486802	0.10671456715942847	0.40459208702416527	-0.03307410713244792	0.12538107099428109	0.3375025420540878	0.09846935451598268	0.261788989238462	0.38643881629782456	0.25385011075049374	0.29591917640256116	0.35277752490514647	0.4937006032366575	0.19532510521289304	0.2804966333891847	0.6770554433407288	0.12644971518526785	0.2503598870252231	0.7245843272869199	0.12896778970310696	0.2743310300676985	0.7706315868707417	0.14967268980239937	0.26405230741232016	0.7779319303479226	-0.01698045379143674	0.4467443898041171	0.28793839417288014	-0.03356071287054726	0.3415414571718349	0.49681935158002827	0.07693349808132945	0.26590275356249765	0.6485885055360571	0.134585325279713	0.22600024818420575	0.7041165183483871	0.14018719177604347	0.22445249578154466	0.7270794147873167	0.13567813891466549	0.2370376247007341	0.7319653875489518
